<svg id="Capa_1" data-name="Capa 1" xmlns="http://www.w3.org/2000/svg" viewBox="0 0 800 800"><title>Logo</title><path d="M702.7,435.79a35,35,0,0,0,6-21.07c-.34-7.66-3.48-14.89-9.32-21.49C694,387.11,686,382.38,675,378.73A74.21,74.21,0,0,0,652.34,375l-1.52,0a67.63,67.63,0,0,0-21.53,3.9,60.38,60.38,0,0,0-13.1,6.64L616,373.39H605.94a18.64,18.64,0,0,0-7.42-.89c-5.52.34-9,2.29-11.29,4.54H512.54l0-3.05H502.43a19.17,19.17,0,0,0-6-.93c-.44,0-.89,0-1.4.05-8.13.49-11.94,4.5-13.7,7.78l-1.57,2.9v3.61a65.28,65.28,0,0,0-9.49-5.86L495,365c19.35-13,38.2-19.55,56-19.55,23,0,36.25,10.88,36.72,11.26l1.5,1.31,1.83.8a34.5,34.5,0,0,0,13.2,2.59,31.94,31.94,0,0,0,17.49-5.13c7.36-4.81,12.16-14.49,12.23-24.66a34.94,34.94,0,0,0-.66-6.84,29.5,29.5,0,0,1,4.27,7.9l.52,1.92,1.07,1.69a26.86,26.86,0,0,0,21.73,12.18h.29c7.43,0,14.95-4.3,19.62-11.23,3.27-4.87,7.87-15.25,1.84-30.1-.1-.26-.23-.49-.33-.74a21.08,21.08,0,0,0,5.1.63,21.69,21.69,0,0,0,4-.38c6.36-1.21,12-6,14.79-12.59,3.21-7.65,2-16.56-3.22-24.46a39.26,39.26,0,0,0-12.64-12A21,21,0,0,0,696,236.85a21.65,21.65,0,0,0-26.51-15.24,21.9,21.9,0,0,0-3.5,1.31c.08-1.19.24-2.35.26-3.58.27-14.93-5.43-23.94-10.27-28.86a30.55,30.55,0,0,0-21.58-9.34,23.4,23.4,0,0,0-8.72,1.61c-14.81,6-18.11,20.57-18.44,22.21l-.38,2,.2,2c0,.39,3.37,37.81-47.22,60.06a27.47,27.47,0,0,0-25.13-16.4,28,28,0,0,0-7.17.94,27.57,27.57,0,0,0-17.32,13.87,41.28,41.28,0,0,0-5-5.73c-6.9-6.53-13.8-7.9-18.38-7.9-9,0-17.23,5.36-20.09,13a22.63,22.63,0,0,0,2.89,20.77l1,1.44,1.61,1.18c.72.59,4.4,3.88,6.15,10.55l.65,3.2c.73,5.3.18,12.27-3.25,21.14l-14.21,36.69v-3.23a19.11,19.11,0,0,0,1-8.13c-.54-7.09-3.64-10.9-6.63-12.93l1.85-64,5-.08v-9.78a19.13,19.13,0,0,0,1-8.14c-.48-6.31-3-10-5.64-12.2a22.36,22.36,0,0,0,2.29-9.89,22.61,22.61,0,0,0-4.68-13.76,20.13,20.13,0,0,0-16.47-7.81c-6.92,0-12.84,2.78-16.66,7.8a22.43,22.43,0,0,0-3.49,6.6c-2.77-2.39-7.34-4.94-14.38-4.94-6,0-10.92,1.69-14.69,5.07a20.08,20.08,0,0,0-6.43,11.11l-.23,1.16-.1,8a38.81,38.81,0,0,0-4.77-4.07c-6.37-4.5-14.37-6.44-24.29-5.68A41.25,41.25,0,0,0,333,243.49a56.43,56.43,0,0,0-14.89,14.19c-.64.88-1.22,1.8-1.81,2.72,0-3.83,0-7.75,0-11.87a15.89,15.89,0,0,0,4.2-5.9,16.57,16.57,0,0,0,1.1-8.29,17.57,17.57,0,0,0-1.78-5.82,14.48,14.48,0,0,0-7.88-7.07l-2.18-.8H287.9l-1.81.53a15.14,15.14,0,0,0-9.83,8.76A16.3,16.3,0,0,0,275.2,238a16.56,16.56,0,0,0,2.29,6.72,15.14,15.14,0,0,0,4.07,4.49v53.66a89.12,89.12,0,0,0-14.65-1.21A69.49,69.49,0,0,0,252,303.54a97,97,0,0,0-15.57,4.86,55.73,55.73,0,0,0-14.26,8.28,25.58,25.58,0,0,0-7.33,9.26c-.66-1.32-1.29-2.65-2.06-3.92-4.9-8-12.42-14.25-22.33-18.66-9.61-4.28-21.46-5.81-36.68-4.65-6.46.52-12.62,1.21-18.29,2.07A135.53,135.53,0,0,0,117.05,305a199.81,199.81,0,0,0-19.77,7.2c-6.87,2.88-14.69,6.56-23.24,10.91l-7.35,3.75,4.09,168.32A15.6,15.6,0,0,0,64,503.57a17.83,17.83,0,0,0-.59,8.9,27.06,27.06,0,0,0,1.47,5.13,15.13,15.13,0,0,0,9.17,9l2.11.71,28.14-.27,13-.36v-9.49a19.07,19.07,0,0,0,1-9.32c-.79-6.63-3.62-11.22-8.4-13.66l-1.74-.89-.66-25.72,2.19-.86q5.52-2.16,10.56-4.31c.12,4.05.35,8.1.72,12.12a149.36,149.36,0,0,0,2.54,17.14,55.67,55.67,0,0,0,6.91,17.73,44.88,44.88,0,0,0,13.44,14,45.6,45.6,0,0,0,20.56,7,56.62,56.62,0,0,0,6.87.41,70.8,70.8,0,0,0,9.51-.68A78.6,78.6,0,0,0,197.23,526a67.44,67.44,0,0,0,15.34-8,45.54,45.54,0,0,0,12.82-13.56l.94-1.87a30.91,30.91,0,0,0,2.34-10.19,60.21,60.21,0,0,0,7.59,11,59.6,59.6,0,0,0,21.37,15.45c8.4,3.69,18.27,5.56,29.34,5.56h.11c14.06-.12,26.56-2.46,37.16-7a82.35,82.35,0,0,0,26.84-17.84A74.18,74.18,0,0,0,361,487a60.72,60.72,0,0,0,10.18,16.4,59.84,59.84,0,0,0,21.37,15.45c8.4,3.69,18.27,5.56,29.34,5.56H422c14.06-.12,26.57-2.46,37.16-7A82.35,82.35,0,0,0,486,499.57,72.63,72.63,0,0,0,502.39,474a80.66,80.66,0,0,0,5.23-28.37,78,78,0,0,0-5.14-27.92c-.3-.78-.68-1.51-1-2.27.37-.1.75-.17,1.11-.28a15.09,15.09,0,0,0,6.89-4.57l11.09.1,12.48,98.06.66,1.61a21.45,21.45,0,0,0,6.69,8.74,21.17,21.17,0,0,0,13.4,4.24c9.07,0,14.06-4,16.68-7.46a18.91,18.91,0,0,0,3.63-15.33,19.69,19.69,0,0,0-8.53-12.46,8.18,8.18,0,0,0-.69-.45l1.72-77.14H586.8a15,15,0,0,0,7.3,4.43,50.31,50.31,0,0,0-1.68,7.72,41.73,41.73,0,0,0,2.4,20.2,40.53,40.53,0,0,0,8.25,13.74,59.66,59.66,0,0,0,9.08,8.09,24.49,24.49,0,0,0-15.38,25.5,31.05,31.05,0,0,0,6,15.53A40.07,40.07,0,0,0,616,517.21a45.45,45.45,0,0,0,19.69,5.37,92.55,92.55,0,0,0,10.51.58q3.69,0,7.53-.27a73.14,73.14,0,0,0,18.72-3.74,44,44,0,0,0,16.38-9.91,28.21,28.21,0,0,0,8.56-20.71l0-.73a25.19,25.19,0,0,0-5.86-14.57,48.16,48.16,0,0,0-9.26-8.69A76.15,76.15,0,0,0,672,458.29c-1.11-.56-2.19-1.09-3.24-1.58a54.4,54.4,0,0,0,18-6.2A45.74,45.74,0,0,0,702.7,435.79Zm-407.19-73.9V370l-.05-8.13Zm-167.6,54.92c-7.08,3.92-14,7.35-20.59,10.18l-1.24.52c-.08-3-.13-5.95-.16-8.79q-.12-12.41-.12-24.32t-.12-24.57c-.07-6.27-.24-12.9-.52-19.81,2-1.12,4.1-2.2,6.37-3.25a129.56,129.56,0,0,1,15.54-6,137.36,137.36,0,0,1,16.83-4.12,112.79,112.79,0,0,1,16.51-1.76h1.39c6,0,10.93.78,14.31,2.23a13.88,13.88,0,0,1,6.44,4.89,14.36,14.36,0,0,1,2.18,7.56,40.82,40.82,0,0,1-1.79,12.64,57.09,57.09,0,0,1-6.38,13.9,72.55,72.55,0,0,1-10.26,13,133.59,133.59,0,0,1-17.58,14.68A231.55,231.55,0,0,1,127.91,416.81Zm111.55-13.6a83,83,0,0,0-14.21,25.19A85.19,85.19,0,0,0,220.34,457a82.18,82.18,0,0,0,1.82,17.15,22.25,22.25,0,0,0-16.52-6.75,21.72,21.72,0,0,0-14.24,4.87,22.72,22.72,0,0,0-7.16,10.62,24.73,24.73,0,0,0-1.13,6.06h-.52l-.59,0a12.28,12.28,0,0,1-6.78-2.28,25.65,25.65,0,0,1-6.7-7.8,62.6,62.6,0,0,1-5.86-13.36,116.84,116.84,0,0,1-3.73-15.94q-.63-3.86-1-7.44c4.05-2.49,8.25-5.36,12.56-8.59A181,181,0,0,0,190.53,416a144.63,144.63,0,0,0,16.92-20.57,71.33,71.33,0,0,0,10.73-23.77,92.44,92.44,0,0,0,2.17-17.88c.28.28.53.59.82.86a40.76,40.76,0,0,0,15.7,8.91,69.79,69.79,0,0,0,17.85,3.09,132,132,0,0,0,17.27-.26q1.17-.09,2.31-.21a19.13,19.13,0,0,0,5.68,11,77,77,0,0,0-17.79,7.15A80.79,80.79,0,0,0,239.46,403.21ZM326,467.49a30.37,30.37,0,0,1-18.14,21.12c-4.71,2.07-10.69,3.12-17.79,3.12l-1.68,0a29.78,29.78,0,0,1-13.17-2.92,28.91,28.91,0,0,1-9.67-7.58,35.06,35.06,0,0,1-6.22-11.49,37.31,37.31,0,0,1-1.8-13.86,60.71,60.71,0,0,1,3.65-17.66A58.27,58.27,0,0,1,270,422.09,43.9,43.9,0,0,1,282.43,411a25.11,25.11,0,0,1,13.23-3.54h.39a21.1,21.1,0,0,1,10.89,3.07,35.35,35.35,0,0,1,10.1,9.36,52.17,52.17,0,0,1,7.4,14.35A61.2,61.2,0,0,1,327.67,451,55.35,55.35,0,0,1,326,467.49Zm48.41-64.28A82.65,82.65,0,0,0,366.32,415a69.61,69.61,0,0,0-14.13-21.29,66.49,66.49,0,0,0-39.1-19,20.16,20.16,0,0,0,3.57-11.78V348.68a54.54,54.54,0,0,0,7,8.83c6.54,6.65,15.26,10.16,25.23,10.16a35.94,35.94,0,0,0,19-5.19,45.39,45.39,0,0,0,7.11-5.34v0a16.47,16.47,0,0,0,1.77,7.41,18.28,18.28,0,0,0,3.91,5.28,15.16,15.16,0,0,0,10.39,4.29h1.45l27.69-6.22,4.78-1.15a14,14,0,0,0,2.42,1.08l2,.67h19.07l10-.16-5.92,7a81.16,81.16,0,0,0-78.17,27.83Zm86.53,64.28a30.32,30.32,0,0,1-18.14,21.12c-4.71,2.07-10.69,3.12-17.79,3.12l-1.68,0a29.7,29.7,0,0,1-13.16-2.92,28.71,28.71,0,0,1-9.67-7.58,34.9,34.9,0,0,1-6.23-11.49,37.34,37.34,0,0,1-1.8-13.86,60.71,60.71,0,0,1,3.65-17.66,58.27,58.27,0,0,1,8.78-16.11c3.58-4.62,17.41-13.47,20.1-14l6.57-.57a21,21,0,0,1,10.32,3c.22.14.43.31.65.45l-.41,1,.67-.88a35.65,35.65,0,0,1,9.19,8.74,52.09,52.09,0,0,1,7.4,14.36,61,61,0,0,1,3.23,16.8A55.38,55.38,0,0,1,460.93,467.49Z" fill="#fefefe"/><path d="M295.51,373.81a8.69,8.69,0,0,1-5.93-1.86,6.24,6.24,0,0,1-2.33-4.12,5.17,5.17,0,0,1,1.69-4.19,8.77,8.77,0,0,1,5.72-2.25v-9.47a46.69,46.69,0,0,1-9.64,3A99.71,99.71,0,0,1,270.93,357a118.4,118.4,0,0,1-15.57.24,56.57,56.57,0,0,1-14.51-2.49,27.44,27.44,0,0,1-10.7-6,13.58,13.58,0,0,1-4.13-10.4q0-4.2,4.44-7.84a42.5,42.5,0,0,1,10.92-6.29,83.41,83.41,0,0,1,13.45-4.19,57.23,57.23,0,0,1,12.08-1.55,74.28,74.28,0,0,1,14.51,1.4,55.14,55.14,0,0,1,13.24,4.34V242.64h-4.87a1.73,1.73,0,0,1-1.06-.85,4,4,0,0,1-.53-1.56,3.18,3.18,0,0,1,.21-1.62,2,2,0,0,1,1.38-1.09h17.59a1.49,1.49,0,0,1,.74.78,4.38,4.38,0,0,1,.42,1.47,3.22,3.22,0,0,1-.21,1.63,2.82,2.82,0,0,1-.95,1.24h-4.24q0,27.48.1,47.11t.22,33.14q.09,13.51.1,21.74v22q0,3.72-2.33,5.43A9.4,9.4,0,0,1,295.51,373.81Zm-50.85-33.37a6.65,6.65,0,0,0,3.07,5.51,22,22,0,0,0,7.84,3.41,53.88,53.88,0,0,0,10.6,1.4,76.18,76.18,0,0,0,11.44-.39,50.71,50.71,0,0,0,10.17-2.1,17,17,0,0,0,6.88-3.8V332.36a19.84,19.84,0,0,0-8.15-4.89,41.8,41.8,0,0,0-10.6-1.94,50.42,50.42,0,0,0-11.12.62,42.05,42.05,0,0,0-10.06,3,23,23,0,0,0-7.32,4.89A9.13,9.13,0,0,0,244.66,340.44Z" fill="#633510"/><path d="M318,299.87a59.81,59.81,0,0,1,3.18-16,54.23,54.23,0,0,1,7.52-14.72,43.18,43.18,0,0,1,11.44-10.92,28.21,28.21,0,0,1,14.94-4.55q10.17-.84,16,3.28A19.7,19.7,0,0,1,378.78,267a20.12,20.12,0,0,1,.1,12.07,14,14,0,0,1-7.1,8.9l-44.7,7a52.58,52.58,0,0,0-1.06,9.33,92.79,92.79,0,0,0,.32,11.65,78.94,78.94,0,0,0,2,12.18,48.11,48.11,0,0,0,4,10.91,25.91,25.91,0,0,0,6.35,8.06,14.77,14.77,0,0,0,9.11,3.38,20.63,20.63,0,0,0,14.3-6.35,25.45,25.45,0,0,0,7.53-14.83,7.06,7.06,0,0,1-5.72-2.87,9.66,9.66,0,0,1-1.91-5.82,9,9,0,0,1,2-5.72c1.34-1.7,3.42-2.54,6.25-2.54q4.88,0,6.78,3.81a9.91,9.91,0,0,1,.85,7.41h.21a38.11,38.11,0,0,1-2,11.87,38.84,38.84,0,0,1-5.83,11.23,32.55,32.55,0,0,1-9.21,8.37,23,23,0,0,1-12.19,3.28q-9.75,0-15.89-6.25a44.2,44.2,0,0,1-9.64-15.25,77,77,0,0,1-4.66-19.07A105.94,105.94,0,0,1,318,299.87Zm37.29-38.14a20.8,20.8,0,0,0-8.79,2.12,34.49,34.49,0,0,0-8.48,5.61,32.23,32.23,0,0,0-6.46,7.84,17.2,17.2,0,0,0-2.54,8.79h1.48l30.93-6.56a7.31,7.31,0,0,0,1.7-4.13,16.85,16.85,0,0,0-.22-5.94,13,13,0,0,0-2.43-5.4A6.17,6.17,0,0,0,355.26,261.73Z" fill="#633510"/><path d="M404.41,250.56,410.35,355l5.08-1.09c.56,0,1.17.65,1.8,1.94s.67,2.25.11,2.87v.16l-26.27,5.9a2.12,2.12,0,0,1-1.38-.7,5.51,5.51,0,0,1-1.17-1.55,3.72,3.72,0,0,1-.42-1.63,1.41,1.41,0,0,1,.85-1.25l6.14-1.39,1.48-114.56a7,7,0,0,1,2.34-3.88c1.27-1.14,3.24-1.71,5.93-1.71s4.69.65,6,1.94a5.54,5.54,0,0,1,0,8.54q-2,1.94-6,1.94Z" fill="#633510"/><path d="M427.93,264.27a2,2,0,0,1-1.06-1.27,8,8,0,0,1-.53-2.22,5.91,5.91,0,0,1,.21-2.23,2.22,2.22,0,0,1,1.38-1.48h21.82c.57.28.92,1.34,1.06,3.17s-.21,3.11-1.06,3.82v.21h-4.66L442.55,352h5.93c.56.28.92,1.34,1.06,3.17s-.21,3.11-1.06,3.82v.21h-17a2,2,0,0,1-1.06-1.27,8,8,0,0,1-.53-2.22,5.72,5.72,0,0,1,.22-2.23,2.2,2.2,0,0,1,1.37-1.48h3.6l-3.6-87.72Zm11.44-18.64a7.1,7.1,0,0,1-6-2.65,10,10,0,0,1-2.12-5.83,8.93,8.93,0,0,1,1.91-5.83q2-2.64,6.25-2.64a7.12,7.12,0,0,1,6,2.64,9.46,9.46,0,0,1,0,11.66A7.1,7.1,0,0,1,439.37,245.63Z" fill="#633510"/><path d="M144.28,438.51a135.77,135.77,0,0,0,5.87,34.59,75.66,75.66,0,0,0,7.09,16.14A38.16,38.16,0,0,0,167.51,501a25.44,25.44,0,0,0,13.69,4.77q7.81.48,17.6-4.65a8.73,8.73,0,0,1-2.45-4.89,11.81,11.81,0,0,1,.37-5.62,9.53,9.53,0,0,1,3.06-4.52,8.81,8.81,0,0,1,5.86-1.84q6.36,0,8.8,5.26t-.24,11.86A32.33,32.33,0,0,1,205,511a54.1,54.1,0,0,1-12.35,6.48A64.49,64.49,0,0,1,179,520.89a49.92,49.92,0,0,1-13,.25q-9-1-14.91-4.89a31.74,31.74,0,0,1-9.54-9.9,42.32,42.32,0,0,1-5.25-13.57A134.21,134.21,0,0,1,134,477.13q-.73-8.07-.73-16.13T133,445.6a70.79,70.79,0,0,1-7.71,4q-4.52,2.08-9.65,4.28t-10.76,4.4q-5.62,2.2-10.75,4.16l1.22,47.42,8.56-.24c.64.33,1.1,1.51,1.34,3.54s-.12,3.46-1.1,4.28v.24L78.28,518a2.35,2.35,0,0,1-1.23-1.47,13.68,13.68,0,0,1-.73-2.56,5,5,0,0,1,.12-2.45A2.61,2.61,0,0,1,78,509.89h6.12L80,338.52q12.47-6.34,22.36-10.51a187.59,187.59,0,0,1,18.46-6.72,122.15,122.15,0,0,1,16.63-3.79q8.07-1.23,17.35-2,19.08-1.46,30.32,3.55t16.5,13.56A38.79,38.79,0,0,1,207.23,352a80.23,80.23,0,0,1-1.83,20.53,58.14,58.14,0,0,1-8.8,19.32,132.27,132.27,0,0,1-15.4,18.7,166.89,166.89,0,0,1-18.58,16.26A132.23,132.23,0,0,1,144.28,438.51ZM91.72,346.84q.73,14.42.86,26.88t.12,24.45q0,12,.12,24.45t.86,26.89a138.72,138.72,0,0,0,18.82-6.72Q123,438.26,134.26,432a243.59,243.59,0,0,0,22-13.81,145.9,145.9,0,0,0,19.31-16.14,85,85,0,0,0,12.1-15.28,69.4,69.4,0,0,0,7.83-17.11A53.26,53.26,0,0,0,197.82,353a27.35,27.35,0,0,0-4.28-14.3q-4-6.24-12.22-9.78t-21.15-3.3a123.88,123.88,0,0,0-18.58,1.95,147.5,147.5,0,0,0-18.45,4.53,141.17,141.17,0,0,0-17.12,6.6A85.8,85.8,0,0,0,91.72,346.84Z" fill="#009845"/><path d="M287,515q-13.94,0-24.08-4.45a46.55,46.55,0,0,1-16.74-12.05,47.94,47.94,0,0,1-9.66-17.41,68.22,68.22,0,0,1-3.06-20.41,71.87,71.87,0,0,1,4.16-24.16,69.87,69.87,0,0,1,12-21.25,66.81,66.81,0,0,1,44.49-23.93q15.9-1.85,28.24,2.53a52.94,52.94,0,0,1,20.53,12.73,56.45,56.45,0,0,1,12.47,19.56,64.69,64.69,0,0,1,4.28,23.25,67.36,67.36,0,0,1-4.4,23.78,59.37,59.37,0,0,1-13.45,20.94,69,69,0,0,1-22.61,15Q305.54,514.88,287,515Zm9.29-116.91a38.31,38.31,0,0,0-20.53,5.37,57.48,57.48,0,0,0-16.14,14.34,71.19,71.19,0,0,0-10.75,19.72,73.11,73.11,0,0,0-4.4,21.48,50.42,50.42,0,0,0,2.44,18.56,48.31,48.31,0,0,0,8.56,15.73,42.28,42.28,0,0,0,13.93,11,43.08,43.08,0,0,0,18.83,4.29q14.66.32,24.93-4.22a43.41,43.41,0,0,0,25.55-29.84,68.39,68.39,0,0,0,2.08-20.33,74,74,0,0,0-3.92-20.4,65.06,65.06,0,0,0-9.29-18,48.49,48.49,0,0,0-13.81-12.74A34.08,34.08,0,0,0,296.26,398.12Z" fill="#009845"/><path d="M421.91,515c-9.28,0-17.32-1.49-24.07-4.45a46.5,46.5,0,0,1-16.75-12.05,47.94,47.94,0,0,1-9.66-17.41,68.21,68.21,0,0,1-3.05-20.41,71.86,71.86,0,0,1,4.15-24.16,69.87,69.87,0,0,1,12-21.25A66.81,66.81,0,0,1,429,391.37q15.9-1.85,28.24,2.53a52.94,52.94,0,0,1,20.53,12.73,56.45,56.45,0,0,1,12.47,19.56,64.69,64.69,0,0,1,4.28,23.25,67.36,67.36,0,0,1-4.4,23.78,59.37,59.37,0,0,1-13.45,20.94,68.94,68.94,0,0,1-22.61,15Q440.5,514.88,421.91,515Zm9.29-116.91a38.31,38.31,0,0,0-20.53,5.37,57.3,57.3,0,0,0-16.13,14.34,71,71,0,0,0-10.76,19.72,73.11,73.11,0,0,0-4.4,21.48,50.63,50.63,0,0,0,2.44,18.56,48.31,48.31,0,0,0,8.56,15.73,42.28,42.28,0,0,0,13.93,11,43.08,43.08,0,0,0,18.83,4.29q14.66.32,24.93-4.22a44.43,44.43,0,0,0,16.63-12.19,44.9,44.9,0,0,0,8.92-17.65,68.39,68.39,0,0,0,2.08-20.33,74,74,0,0,0-3.92-20.4,64.79,64.79,0,0,0-9.29-18,48.36,48.36,0,0,0-13.81-12.74A34,34,0,0,0,431.2,398.12Z" fill="#009845"/><path d="M602,405.92a8.71,8.71,0,0,1-2.15.38,8.14,8.14,0,0,1-2.25-.15,1.45,1.45,0,0,1-1.23-1v-4H553.8L551.55,502c2.73-.7,4.94-.48,6.65.69a6.8,6.8,0,0,1,3.07,4.26,5.74,5.74,0,0,1-1.23,4.79q-1.74,2.28-6.24,2.28a7.81,7.81,0,0,1-8-4.87l-13.7-107.67-32.53-.31v4.57a1.77,1.77,0,0,1-1.12.76,8.71,8.71,0,0,1-2.15.38,8.14,8.14,0,0,1-2.25-.15,1.46,1.46,0,0,1-1.23-1V390.86c.27-.5,1.26-.81,3-.91s2.9.21,3.58.91h.2v3.05h96.76v-3.65c.28-.51,1.26-.81,3-.92s2.9.21,3.58.92h.2v14.9A1.74,1.74,0,0,1,602,405.92Z" fill="#009845"/><path d="M636.31,416.41a4.16,4.16,0,0,1,1-1.44,6.33,6.33,0,0,1,1.64-1.14,2.1,2.1,0,0,1,1.73-.16l18,11.26c.13.2.06.51-.21.91a5.91,5.91,0,0,1-1.12,1.22,13.63,13.63,0,0,1-1.54,1.14,2.92,2.92,0,0,1-1.63.53v.15l-7.57-4.71a17.88,17.88,0,0,0-7.88,2.13c-2.11,1.22-3.41,2.61-3.88,4.18s0,3.25,1.53,5,4.29,3.37,8.39,4.79a41.8,41.8,0,0,0,15.85.3,25.65,25.65,0,0,0,11.15-4.79,17.78,17.78,0,0,0,5.93-8.13,17.44,17.44,0,0,0,.62-9.51,19.24,19.24,0,0,0-5-9.05,28.33,28.33,0,0,0-11-6.84,44.77,44.77,0,0,0-16.67-2.89,36.41,36.41,0,0,0-13.71,3A31,31,0,0,0,621.68,410,37.78,37.78,0,0,0,615,420.21a31.07,31.07,0,0,0-2.55,11.33,25,25,0,0,0,1.84,10.73Q620,455.8,657.89,470.1a80.07,80.07,0,0,1,8.18,3.65,62.59,62.59,0,0,1,8.49,5.17,34.71,34.71,0,0,1,6.75,6.31,12.33,12.33,0,0,1,3,7.07,15.19,15.19,0,0,1-4.6,11.33,30.94,30.94,0,0,1-11.56,6.92,59.28,59.28,0,0,1-15.35,3,83.29,83.29,0,0,1-15.95-.3,32.81,32.81,0,0,1-14.42-3.73,27.16,27.16,0,0,1-9-7.68,18.16,18.16,0,0,1-3.59-9.05,11.94,11.94,0,0,1,2-8.06,12.79,12.79,0,0,1,7.36-4.86q5-1.46,12.79.83,3.27,1.06,4.19,3.35a5.23,5.23,0,0,1-.1,4.41,7.21,7.21,0,0,1-3.68,3.35A9,9,0,0,1,626,492q-3.9-1.06-4.71-3.65a4.92,4.92,0,0,1,.82-4.72,6.68,6.68,0,0,0-6,4.34,11.15,11.15,0,0,0,.4,8.59q1.95,4.71,7.88,8.59t16.36,4.34a63.08,63.08,0,0,0,14.32-.92,43.73,43.73,0,0,0,10.75-3.34,21.27,21.27,0,0,0,7-5.1,13.41,13.41,0,0,0,3.17-6q1.85-9.88-22.91-19.78-9.62-3.8-17.29-7.37a102.18,102.18,0,0,1-13.4-7.38,49.72,49.72,0,0,1-9.51-8,27.65,27.65,0,0,1-5.62-9.35,28.74,28.74,0,0,1-1.74-14.15,37,37,0,0,1,4.5-13.53A41.7,41.7,0,0,1,619.64,403,46,46,0,0,1,633.75,395a54.47,54.47,0,0,1,17.39-3.12A60.21,60.21,0,0,1,671,395q12.88,4.26,18.62,10.72t6,13.38a22,22,0,0,1-3.88,13.31,32.56,32.56,0,0,1-11.46,10.49,42.61,42.61,0,0,1-16.78,5.1A40,40,0,0,1,644,444.85q-9-3.64-12.48-7.68c-2.32-2.68-3.27-5.17-2.87-7.45a8.75,8.75,0,0,1,4.3-5.78,18.38,18.38,0,0,1,9-2.66l-5.52-3.65A1.07,1.07,0,0,1,636.31,416.41Z" fill="#009845"/><path d="M513.71,329.25c17.8-15.57,57.91-40.07,93.15-16.4,20.25,13.59,14.5,31.75,7.71,36.19-8.73,5.7-18.26,1.52-18.26,1.52s-42.58-37-108.64,7.29C487.67,357.85,506.44,335.62,513.71,329.25Z" fill="#76bc21"/><path d="M593.43,282.77c20.53-5.07,59-21.93,59.74-59.9.4-21.81-15.86-26.9-22.59-24.2-8.65,3.49-10.47,12.62-10.47,12.62s5.33,50.18-61,75.92C559.11,287.21,585,284.84,593.43,282.77Z" fill="#76bc21"/><path d="M498.31,318.83c5.25-9.66,12.26-30.34-2.07-43.91-8.23-7.79-15.87-3.33-17.19.2a9.58,9.58,0,0,0,1.17,8.44s21.13,15.53,7.78,50C488,333.56,496.17,322.78,498.31,318.83Z" fill="#76bc21"/><path d="M649.18,271.11c10.4-3.53,32-6.94,42.92,9.48,6.28,9.44.59,16.22-3.11,16.92a9.6,9.6,0,0,1-8.12-2.59s-11.72-23.45-48-16.14C632.92,278.78,644.92,272.56,649.18,271.11Z" fill="#76bc21"/><path d="M611.82,289.63c15.94-2,47.84-.57,58.69,26.16,6.23,15.35-3.9,23.4-9.41,23.31C654,339,650.24,333,650.24,333s-9.92-37-64-37.18C586.28,295.84,605.3,290.45,611.82,289.63Z" fill="#009845"/><ellipse cx="534.62" cy="283.72" rx="14.47" ry="14.27" transform="translate(-55.09 147.51) rotate(-14.95)" fill="#009845"/><ellipse cx="675.07" cy="246.22" rx="8.58" ry="8.47" transform="translate(-40.67 182.47) rotate(-14.95)" fill="#009845"/><path d="M315.77,582.1a18.82,18.82,0,0,0-7.11-5,21.86,21.86,0,0,0-8.35-1.62,21,21,0,0,0-5,.62H275.58l-5.46,6.12V563.56H254.4V582a19.21,19.21,0,0,0-4.11-3.63,17.94,17.94,0,0,0-9.88-2.88,18.17,18.17,0,0,0-13.68,6.15,19.86,19.86,0,0,0-2.82,4c-.09-.27-.16-.55-.27-.81a14.67,14.67,0,0,0-5.93-6.82c-4.9-3.09-11.8-3.47-18.42-.68a24.86,24.86,0,0,0-8.25,5.78l-.34.35c-.18-.38-.35-.77-.56-1.13a13.85,13.85,0,0,0-5.61-5.37,14.75,14.75,0,0,0-6.61-1.52,20.16,20.16,0,0,0-5.78,1v-.38H156.42v5.77a18.84,18.84,0,0,0-6.83-4.77,21.86,21.86,0,0,0-8.35-1.62c-4.71,0-8.57,1.3-11.49,3.87a13.14,13.14,0,0,0-.88,19.35l.29.28c.32.3.66.58,1,.84l-9.47,6.61,5.22,4.88a29.44,29.44,0,0,0,8.06,5.61,22.08,22.08,0,0,0,9.05,1.87,16.86,16.86,0,0,0,11.73-4.11,15.17,15.17,0,0,0,1.67-1.84v5.32h15.72V592.29a21.82,21.82,0,0,1,2.08-.85,10.52,10.52,0,0,1,2.38-.57c0,.11,0,.23,0,.37v26.88h15.72v-3.94c.17.18.29.39.47.57a14.4,14.4,0,0,0,10.32,4A19.16,19.16,0,0,0,211,617l.31,1.1H227.4l-1.75-6.83a17.86,17.86,0,0,0,5,4.67,18.38,18.38,0,0,0,9.75,2.79,17.7,17.7,0,0,0,10.86-3.62,18.72,18.72,0,0,0,3.16-3v6h15.72V606l6.42,12.13h18l-.49-.87a22.29,22.29,0,0,0,8.07,1.5c4.78,0,8.72-1.38,11.73-4.11a13.93,13.93,0,0,0,4.78-10.55,13.77,13.77,0,0,0-4-9.58,14.2,14.2,0,0,0-2.16-1.86l7.23-6.12Z" fill="#fff"/><path d="M649.19,592.65l7.23-6.12-3.9-4.43a18.82,18.82,0,0,0-7.11-5,21.86,21.86,0,0,0-8.35-1.62c-4.7,0-8.57,1.3-11.49,3.87a14.38,14.38,0,0,0-3.21,4.13,18.18,18.18,0,0,0-5.27-5.1,17.84,17.84,0,0,0-9.66-2.9,17.57,17.57,0,0,0-13.2,6.09,19.47,19.47,0,0,0-2.92,4.31V563.56H575.59V587.1a15.41,15.41,0,0,0-.68-2.27A14.63,14.63,0,0,0,569,578c-4.9-3.09-11.79-3.47-18.42-.68a24.93,24.93,0,0,0-8.24,5.78l-.34.35a12,12,0,0,0-.57-1.13,13.77,13.77,0,0,0-5.6-5.37,14.78,14.78,0,0,0-6.61-1.52,20,20,0,0,0-5.78,1v-.38H507.69v8.72a14.67,14.67,0,0,0-5.91-6.77c-4.89-3.09-11.8-3.47-18.42-.68a24.5,24.5,0,0,0-7.67,5.24l-.42-.47a18.82,18.82,0,0,0-7.11-5,21.86,21.86,0,0,0-8.35-1.62c-4.7,0-8.57,1.3-11.49,3.87a14.38,14.38,0,0,0-3.21,4.13,18.06,18.06,0,0,0-5.27-5.1,17.84,17.84,0,0,0-9.66-2.9,17.28,17.28,0,0,0-12.29,5.19v-4.57h-7.57V565H394.65v10.7l-5.11-.2c-.59,0-1.05,0-1.37,0a17.76,17.76,0,0,0-5.92,1v-.33H366.53v9.28c-.06-.17-.1-.35-.17-.51a14.67,14.67,0,0,0-5.93-6.82c-4.9-3.09-11.8-3.47-18.42-.68a24.86,24.86,0,0,0-8.25,5.78l-4.27,4.44,7,6a14.54,14.54,0,0,0-2.16,2.36,14.76,14.76,0,0,0-3,8.84,13.76,13.76,0,0,0,4.12,10,14.38,14.38,0,0,0,10.32,4,19.16,19.16,0,0,0,7.91-1.73l.31,1.1h28.19V598.78a10.51,10.51,0,0,1,.62-3.11,7.94,7.94,0,0,1,1.41-2.68,4.18,4.18,0,0,1,1.5-1.17,3.86,3.86,0,0,1,1.1-.33l6.87.39.06-.46h.84V605.3c0,4.36,1.22,7.76,3.61,10.1s5.8,3.46,10.26,3.46a36.29,36.29,0,0,0,4.27-.3l5.1-.61v-4.48a17.77,17.77,0,0,0,12.66,5.28,18.73,18.73,0,0,0,9.49-2.63,23.53,23.53,0,0,0,5.19-4.2,28.37,28.37,0,0,0,7.32,5,22,22,0,0,0,9.05,1.87,16.84,16.84,0,0,0,11.72-4.11,14.67,14.67,0,0,0,1.81-2,13.93,13.93,0,0,0,1.75,2.1,14.38,14.38,0,0,0,10.32,4,19.12,19.12,0,0,0,7.9-1.73l.32,1.1h28V592.29a20.69,20.69,0,0,1,2.07-.85,10.58,10.58,0,0,1,2.39-.57c0,.11,0,.23,0,.37v26.88H543.6v-3.94c.16.18.29.39.47.57a14.38,14.38,0,0,0,10.32,4,19.12,19.12,0,0,0,7.9-1.73l.32,1.1h28.7v-9.91a18.9,18.9,0,0,0,3,4.4,17.93,17.93,0,0,0,13.52,6.14,18.78,18.78,0,0,0,9.49-2.63,23.53,23.53,0,0,0,5.19-4.2,28.37,28.37,0,0,0,7.32,5,22,22,0,0,0,9,1.87c4.78,0,8.72-1.38,11.73-4.11a13.78,13.78,0,0,0,.79-20.13A14.79,14.79,0,0,0,649.19,592.65Z" fill="#fff"/><path d="M143,593.34c-3.55-.92-4.87-1.67-5.36-2.15a2.81,2.81,0,0,1-1-2.09,3.11,3.11,0,0,1,1.3-2.45,6.41,6.41,0,0,1,4.16-1.14,8.56,8.56,0,0,1,3.91.86,11.34,11.34,0,0,1,3.38,2.77l.54.62,4.41-3.74-.56-.64a14.06,14.06,0,0,0-5.26-3.72,17,17,0,0,0-6.48-1.25c-3.46,0-6.22.88-8.21,2.63a8.19,8.19,0,0,0-.56,12.22l0,0a9.5,9.5,0,0,0,2.33,1.58,32.58,32.58,0,0,0,5.85,2.07c3.55.92,5.92,1.93,7,3a3,3,0,0,1,1,2.31,3.79,3.79,0,0,1-1.46,2.93,6.49,6.49,0,0,1-4.36,1.31,9.86,9.86,0,0,1-4.37-1A17.76,17.76,0,0,1,134.8,604l-.49-.5-5,3.47.75.71a25.43,25.43,0,0,0,6.7,4.7,17.19,17.19,0,0,0,7,1.43,12.07,12.07,0,0,0,8.4-2.82,9,9,0,0,0,3.15-6.87,8.88,8.88,0,0,0-2.64-6.19C151,596.09,147.79,594.59,143,593.34Z" fill="#633510"/><path d="M183.12,581.42a9.85,9.85,0,0,0-4.41-1,17.23,17.23,0,0,0-5.36,1.12A34.87,34.87,0,0,0,168,584V581h-5.8v32.15H168V589.3a32,32,0,0,1,5.42-2.53c3.44-1.18,6.25-1.33,7.79.37a6,6,0,0,1,1.17,4.11v21.93h5.81V590.94a11.56,11.56,0,0,0-1.48-6A8.92,8.92,0,0,0,183.12,581.42Z" fill="#633510"/><path d="M220.68,605.06V592.13a14.7,14.7,0,0,0-.83-5.39,9.83,9.83,0,0,0-4-4.53c-3.51-2.22-8.73-2.46-13.85-.3a20,20,0,0,0-6.6,4.65l-.62.64,4.25,3.62.54-.46a26.14,26.14,0,0,1,5.67-3.86c3.2-1.47,6.28-1.5,8.17.31a4.49,4.49,0,0,1,1.43,3.41v1.22a117.55,117.55,0,0,0-12.3,3.13,12.86,12.86,0,0,0-6.11,4.26,9.86,9.86,0,0,0-2,5.91,8.71,8.71,0,0,0,2.63,6.48,9.36,9.36,0,0,0,6.85,2.58,14.48,14.48,0,0,0,6.36-1.51,20.8,20.8,0,0,0,4.7-3.23,23.55,23.55,0,0,0,.72,3.51l.18.61h5.93l-.27-1A28.85,28.85,0,0,1,220.68,605.06Zm-5.84-.63a29,29,0,0,1-5.24,3c-3.32,1.39-6.2,1.44-7.77,0a3.53,3.53,0,0,1-1.14-2.72,5.19,5.19,0,0,1,1.43-3.47,10.74,10.74,0,0,1,4.76-2.84c1.31-.46,4-1.18,8-2.14Z" fill="#633510"/><path d="M248.75,602.59c-1.95,4-4.47,5.91-7.73,5.91a7.23,7.23,0,0,1-5.64-2.93c-1.69-2-2.54-4.77-2.54-8.25,0-4,.84-7,2.51-8.93a7.33,7.33,0,0,1,5.78-2.88,6.42,6.42,0,0,1,4.11,1.4,14.15,14.15,0,0,1,3.52,4.51l.4.74,5.07-2.76-.4-.73a16.55,16.55,0,0,0-5.44-6.17A13.36,13.36,0,0,0,231.18,585c-2.74,3-4.12,7.06-4.12,12.11a20.48,20.48,0,0,0,1.79,8.75,13.49,13.49,0,0,0,12.31,8,12.88,12.88,0,0,0,7.9-2.63,18.17,18.17,0,0,0,4.77-5.82l.41-.73-5.11-2.81Z" fill="#633510"/><polygon points="286.35 581.03 278.58 581.03 265.95 595.21 265.95 568.53 260.14 568.53 260.14 613.18 265.95 613.18 265.95 602.59 271.57 596.65 280.31 613.18 286.83 613.18 275.32 592.67 286.35 581.03" fill="#633510"/><path d="M302,593.34c-3.55-.92-4.87-1.67-5.36-2.15a2.85,2.85,0,0,1-1-2.09,3.12,3.12,0,0,1,1.31-2.45,6.41,6.41,0,0,1,4.16-1.14,8.59,8.59,0,0,1,3.91.86,11.47,11.47,0,0,1,3.38,2.77l.54.62L313.4,586l-.56-.64a14.06,14.06,0,0,0-5.26-3.72,17,17,0,0,0-6.48-1.25c-3.47,0-6.23.88-8.21,2.63a8.19,8.19,0,0,0-.56,12.22l0,0a9.45,9.45,0,0,0,2.32,1.58,32.43,32.43,0,0,0,5.86,2.07c3.55.92,5.91,1.93,7,3a3,3,0,0,1,1,2.31,3.78,3.78,0,0,1-1.45,2.93,6.5,6.5,0,0,1-4.37,1.31,9.85,9.85,0,0,1-4.36-1,17.59,17.59,0,0,1-4.56-3.48l-.5-.5-5,3.47.76.71a25.23,25.23,0,0,0,6.69,4.7,17.22,17.22,0,0,0,7,1.43,12.05,12.05,0,0,0,8.4-2.82,9,9,0,0,0,3.15-6.87,8.88,8.88,0,0,0-2.64-6.19C310.06,596.09,306.87,594.59,302,593.34Z" fill="#633510"/><path d="M363.4,605.06V592.13a14.7,14.7,0,0,0-.83-5.39,9.88,9.88,0,0,0-4-4.53c-3.52-2.22-8.73-2.46-13.85-.3a19.82,19.82,0,0,0-6.6,4.65l-.62.64,4.25,3.62.54-.46A26.36,26.36,0,0,1,348,586.5c3.21-1.47,6.29-1.5,8.18.31a4.49,4.49,0,0,1,1.43,3.41v1.22a117.55,117.55,0,0,0-12.3,3.13,12.86,12.86,0,0,0-6.11,4.26,9.88,9.88,0,0,0-2,5.91,8.72,8.72,0,0,0,2.64,6.48,9.35,9.35,0,0,0,6.85,2.58,14.48,14.48,0,0,0,6.36-1.51,21,21,0,0,0,4.7-3.23,23.55,23.55,0,0,0,.72,3.51l.17.61h5.94l-.27-1A28.38,28.38,0,0,1,363.4,605.06Zm-5.84-.63a29,29,0,0,1-5.25,3c-3.31,1.39-6.19,1.44-7.76,0a3.53,3.53,0,0,1-1.14-2.72,5.19,5.19,0,0,1,1.43-3.47,10.74,10.74,0,0,1,4.76-2.84c1.31-.46,4-1.18,8-2.14Z" fill="#633510"/><path d="M389,580.38a12.37,12.37,0,0,0-6.83,2,17.54,17.54,0,0,0-4.05,3.83V581h-5.81v32.15h5.81V598.79a15.17,15.17,0,0,1,.87-4.64,12.82,12.82,0,0,1,2.35-4.37,9.12,9.12,0,0,1,3.33-2.51,7.73,7.73,0,0,1,3.31-.71l2.28.13.82-6.25-.92,0Z" fill="#633510"/><path d="M406.15,569.92H400.4V581h-5.33v5.44h5.33v18.84c0,3,.7,5.19,2.1,6.56s3.69,2,6.81,2a32.64,32.64,0,0,0,3.67-.26l.74-.09v-5.52l-1,.25a12,12,0,0,1-2.77.43,3.53,3.53,0,0,1-2.74-1.06,4.25,4.25,0,0,1-1-3.09V586.47h7.57V581h-7.57Z" fill="#633510"/><path d="M439.85,602.65c-2.76,3.87-5.7,5.83-8.77,5.83a6.89,6.89,0,0,1-3.71-1.27,8.71,8.71,0,0,1-3.11-4.09,15.43,15.43,0,0,1-1-4.8h21.49l0-.84a22.94,22.94,0,0,0-1.73-9.19,13.36,13.36,0,0,0-5-5.75,13,13,0,0,0-7-2.13,12.53,12.53,0,0,0-9.53,4.47c-2.68,2.94-4,7-4,12,0,5.24,1.37,9.4,4.07,12.37a12.89,12.89,0,0,0,9.86,4.51,13.83,13.83,0,0,0,7-1.95,21.31,21.31,0,0,0,6.23-5.84l.51-.69L440.33,602Zm-16.39-9.71a10.18,10.18,0,0,1,2.17-5,6.49,6.49,0,0,1,5.43-2.58,6.92,6.92,0,0,1,5,2.21,9.5,9.5,0,0,1,2.56,5.33Z" fill="#633510"/><path d="M461.54,593.34c-3.54-.92-4.87-1.67-5.36-2.15a2.85,2.85,0,0,1-1-2.09,3.12,3.12,0,0,1,1.31-2.45,6.41,6.41,0,0,1,4.16-1.14,8.59,8.59,0,0,1,3.91.86,11.47,11.47,0,0,1,3.38,2.77l.54.62L472.9,586l-.56-.64a14.06,14.06,0,0,0-5.26-3.72,17,17,0,0,0-6.48-1.25c-3.47,0-6.23.88-8.21,2.63a8.19,8.19,0,0,0-.56,12.22l0,0a9.45,9.45,0,0,0,2.32,1.58,32.71,32.71,0,0,0,5.86,2.07c3.55.92,5.92,1.93,7,3a3.06,3.06,0,0,1,1,2.31,3.79,3.79,0,0,1-1.46,2.93,6.5,6.5,0,0,1-4.37,1.31,9.85,9.85,0,0,1-4.36-1,17.59,17.59,0,0,1-4.56-3.48l-.5-.5-5,3.47.76.71a25.39,25.39,0,0,0,6.69,4.7,17.22,17.22,0,0,0,7,1.43,12.05,12.05,0,0,0,8.4-2.82,9,9,0,0,0,3.15-6.87,8.84,8.84,0,0,0-2.64-6.19C469.56,596.09,466.37,594.59,461.54,593.34Z" fill="#633510"/><path d="M504.75,605.06V592.13a14.7,14.7,0,0,0-.83-5.39,9.86,9.86,0,0,0-4-4.53c-3.52-2.22-8.73-2.46-13.86-.3a20,20,0,0,0-6.6,4.65l-.61.64,4.25,3.62.54-.46a26.12,26.12,0,0,1,5.66-3.86c3.2-1.47,6.29-1.5,8.17.31a4.45,4.45,0,0,1,1.43,3.41v1.22a117.12,117.12,0,0,0-12.29,3.13,12.81,12.81,0,0,0-6.11,4.26,9.88,9.88,0,0,0-2,5.91,8.75,8.75,0,0,0,2.63,6.48A9.38,9.38,0,0,0,488,613.8a14.56,14.56,0,0,0,6.37-1.51,21,21,0,0,0,4.7-3.23,22.35,22.35,0,0,0,.72,3.51l.17.61h5.93l-.26-1A28.38,28.38,0,0,1,504.75,605.06Zm-5.84-.63a29,29,0,0,1-5.24,3c-3.32,1.39-6.19,1.44-7.76,0a3.54,3.54,0,0,1-1.15-2.72,5.19,5.19,0,0,1,1.43-3.47,10.85,10.85,0,0,1,4.76-2.84c1.32-.46,4-1.18,8-2.14Z" fill="#633510"/><path d="M534.38,581.42a9.82,9.82,0,0,0-4.41-1,17.29,17.29,0,0,0-5.36,1.12,34.36,34.36,0,0,0-5.37,2.42V581h-5.81v32.15h5.81V589.3a32,32,0,0,1,5.42-2.53c3.44-1.18,6.25-1.33,7.78.37a6,6,0,0,1,1.18,4.11v21.93h5.8V590.94a11.47,11.47,0,0,0-1.48-6A8.8,8.8,0,0,0,534.38,581.42Z" fill="#633510"/><path d="M571.94,605.06V592.13a14.76,14.76,0,0,0-.82-5.39,9.89,9.89,0,0,0-4-4.53c-3.52-2.22-8.73-2.46-13.86-.3a20,20,0,0,0-6.6,4.65l-.61.64,4.25,3.62.54-.46a26.12,26.12,0,0,1,5.66-3.86c3.21-1.47,6.28-1.5,8.18.31a4.5,4.5,0,0,1,1.43,3.41v1.22a116.13,116.13,0,0,0-12.3,3.13,12.81,12.81,0,0,0-6.11,4.26,9.88,9.88,0,0,0-2,5.91,8.75,8.75,0,0,0,2.63,6.48,9.36,9.36,0,0,0,6.85,2.58,14.49,14.49,0,0,0,6.37-1.51,21,21,0,0,0,4.7-3.23,23.55,23.55,0,0,0,.72,3.51l.17.61h5.93l-.26-1A28.38,28.38,0,0,1,571.94,605.06Zm-5.83-.64a28.84,28.84,0,0,1-5.25,3c-3.31,1.39-6.19,1.45-7.76,0a3.53,3.53,0,0,1-1.14-2.72,5.18,5.18,0,0,1,1.42-3.47,10.93,10.93,0,0,1,4.77-2.84c1.31-.46,4-1.18,8-2.14Z" fill="#633510"/><rect x="581.33" y="568.53" width="5.81" height="44.65" fill="#633510"/><path d="M617.09,602.65c-2.75,3.87-5.69,5.83-8.76,5.83a6.89,6.89,0,0,1-3.71-1.27,8.65,8.65,0,0,1-3.11-4.09,15.43,15.43,0,0,1-1-4.8H622l0-.84a23.11,23.11,0,0,0-1.73-9.19,13.42,13.42,0,0,0-5-5.75,13,13,0,0,0-7-2.13,12.53,12.53,0,0,0-9.53,4.47c-2.68,2.94-4,7-4,12,0,5.24,1.37,9.4,4.07,12.37a12.89,12.89,0,0,0,9.86,4.51,13.83,13.83,0,0,0,7-1.95,21.45,21.45,0,0,0,6.23-5.84l.51-.69L617.58,602Zm-16.38-9.71a10.18,10.18,0,0,1,2.17-5,6.49,6.49,0,0,1,5.43-2.58,6.92,6.92,0,0,1,5,2.21,9.5,9.5,0,0,1,2.56,5.33Z" fill="#633510"/><path d="M648.54,597.92c-1.73-1.83-4.92-3.33-9.75-4.58-3.55-.92-4.87-1.67-5.36-2.15a2.85,2.85,0,0,1-1-2.09,3.12,3.12,0,0,1,1.31-2.45,6.41,6.41,0,0,1,4.16-1.14,8.59,8.59,0,0,1,3.91.86,11.6,11.6,0,0,1,3.38,2.77l.54.61,4.41-3.73-.56-.64a14.06,14.06,0,0,0-5.26-3.72,17,17,0,0,0-6.48-1.25c-3.47,0-6.23.88-8.21,2.63a8.19,8.19,0,0,0-.56,12.22l0,0a9.45,9.45,0,0,0,2.32,1.58,32.58,32.58,0,0,0,5.85,2.07c3.55.92,5.92,1.92,7,3a3,3,0,0,1,1,2.31,3.78,3.78,0,0,1-1.45,2.93,6.5,6.5,0,0,1-4.37,1.31,9.85,9.85,0,0,1-4.36-1,17.88,17.88,0,0,1-4.56-3.48l-.5-.5-5,3.47.76.71a25.23,25.23,0,0,0,6.69,4.7,17.22,17.22,0,0,0,7,1.43A12.05,12.05,0,0,0,648,611a9,9,0,0,0,3.15-6.87A8.84,8.84,0,0,0,648.54,597.92Z" fill="#633510"/><path d="M736.88,364.86a17.2,17.2,0,1,1-17.15-16.74A16.81,16.81,0,0,1,736.88,364.86Zm-30.11,0c0,7.44,5.52,13.36,13.07,13.36,7.34,0,12.75-5.92,12.75-13.26s-5.41-13.47-12.86-13.47S706.77,357.51,706.77,364.86Zm10.31,8.77H713.2V356.9a33.62,33.62,0,0,1,6.43-.51c3.17,0,4.59.51,5.82,1.22a4.62,4.62,0,0,1,1.63,3.67c0,1.84-1.43,3.27-3.47,3.88v.21c1.63.61,2.55,1.83,3.06,4.08.51,2.55.82,3.57,1.23,4.18h-4.19c-.51-.61-.81-2.14-1.32-4.08-.31-1.84-1.33-2.65-3.47-2.65h-1.84Zm.1-9.49H719c2.14,0,3.88-.71,3.88-2.45,0-1.53-1.12-2.55-3.57-2.55a9.49,9.49,0,0,0-2.15.2Z" fill="#633510"/></svg>